HIERARCHY
ROOT Hips
{
	OFFSET 0.000000 0.000000 0.000000
	CHANNELS 6 Xposition Yposition Zposition Zrotation Yrotation Xrotation 
	JOINT LHipJoint
	{
		OFFSET 0.000000 0.000000 0.000000
		CHANNELS 3 Zrotation Yrotation Xrotation
		JOINT LeftUpLeg
		{
			OFFSET 1.363060 -1.794630 0.839290
			CHANNELS 3 Zrotation Yrotation Xrotation
			JOINT LeftLeg
			{
				OFFSET 2.448110 -6.726130 0.000000
				CHANNELS 3 Zrotation Yrotation Xrotation
				JOINT LeftFoot
				{
					OFFSET 2.562200 -7.039590 0.000000
					CHANNELS 3 Zrotation Yrotation Xrotation
					JOINT LeftToeBase
					{
						OFFSET 0.157640 -0.433110 2.322550
						CHANNELS 3 Zrotation Yrotation Xrotation
						End Site
						{
							OFFSET 0.000000 0.000000 0.000000
						}
					}
				}
			}
		}
	}
	JOINT RHipJoint
	{
		OFFSET 0.000000 0.000000 0.000000
		CHANNELS 3 Zrotation Yrotation Xrotation
		JOINT RightUpLeg
		{
			OFFSET -1.305520 -1.794630 0.839290
			CHANNELS 3 Zrotation Yrotation Xrotation
			JOINT RightLeg
			{
				OFFSET -2.542530 -6.985550 0.000000
				CHANNELS 3 Zrotation Yrotation Xrotation
				JOINT RightFoot
				{
					OFFSET -2.568260 -7.056230 0.000000
					CHANNELS 3 Zrotation Yrotation Xrotation
					JOINT RightToeBase
					{
						OFFSET -0.164730 -0.452590 2.363150
						CHANNELS 3 Zrotation Yrotation Xrotation
						End Site
						{
							OFFSET 0.000000 0.000000 0.000000
						}
					}
				}
			}
		}
	}
}
MOTION
Frames: 13
Frame Time: 0.008333
16.487470 20.807596 1.696759 19.682070 -76.586597 -8.008013 -11.499664 4.427349 7.104353 0.553949 -21.495898 -21.917858 2.695391 3.946945 83.550615 2.830616 11.068753 26.561889 4.706900 0.000000 -65.225800 13.306404 -4.441210 3.719681 0.588320 10.803715 -14.265639 -4.583982 -5.405819 93.331404 -1.341465 -6.461175 -5.362179 -0.167500 0.000000 -74.550700
16.370336 20.890932 1.690104 19.255149 -76.834669 -7.965017 -11.755629 4.495185 7.028715 1.144025 -22.175869 -22.443457 3.111459 4.397981 88.561363 2.839728 10.707026 27.140212 4.565299 -0.000000 -64.972200 13.583455 -4.614922 3.695506 0.351708 11.877564 -14.592271 -5.414500 -5.877858 99.336853 -1.251327 -6.086498 -7.164706 -0.014601 0.000000 -73.606399
16.251675 20.966883 1.686141 18.676879 -77.123554 -7.727023 -12.032426 4.570687 6.963868 1.859781 -22.890546 -22.928850 3.572250 4.844431 93.245903 2.807653 9.924658 27.852160 4.214700 0.000000 -64.551100 13.849650 -4.788169 3.705272 0.085338 13.085914 -14.838162 -6.331242 -6.328661 104.983289 -1.147508 -5.611527 -8.936713 0.107000 0.000000 -72.561999
16.130658 21.035771 1.685355 17.918035 -77.432239 -7.261723 -12.323777 4.652121 6.920313 2.693650 -23.676757 -23.365931 4.070591 5.279848 97.572651 2.737410 8.772964 28.633820 3.664000 0.000000 -64.073100 14.097249 -4.954490 3.753111 -0.213555 14.420642 -15.002469 -7.313840 -6.745715 110.208528 -1.045869 -5.131860 -10.663465 0.197500 0.000000 -71.458901
16.006837 21.098398 1.688110 16.950406 -77.735399 -6.543542 -12.622311 4.737384 6.907153 3.632663 -24.564544 -23.750731 4.595492 5.698040 101.510419 2.633854 7.318327 29.437216 2.934301 -0.000000 -63.618301 14.317623 -5.106714 3.839779 -0.546494 15.862420 -15.092859 -8.330198 -7.116827 114.943212 -0.962467 -4.739067 -12.302284 0.266500 0.000000 -70.367401
15.879806 21.155210 1.694495 15.762733 -78.006410 -5.561205 -12.919639 4.824472 6.931640 4.659160 -25.572795 -24.086061 5.132228 6.092889 105.031654 2.503375 5.636928 30.228910 2.056800 -0.000000 -63.215000 14.502751 -5.238152 3.963088 -0.911427 17.381143 -15.129449 -9.337765 -7.432056 119.121352 -0.911562 -4.511260 -13.797213 0.330000 -0.000000 -69.329500
15.749570 21.206639 1.704181 14.371519 -78.219279 -4.333529 -13.205886 4.910647 6.998249 5.750214 -26.706120 -24.383275 5.661706 6.458177 108.108879 2.354010 3.813560 30.989910 1.072300 0.000000 -62.895600 14.646983 -5.342502 4.116880 -1.302820 18.933364 -15.145607 -10.286192 -7.685573 122.683995 -0.903723 -4.506468 -15.095730 0.405500 -0.000000 -68.356700
15.616334 21.252448 1.716458 12.833795 -78.352608 -2.920085 -13.470523 4.992206 7.108314 6.877366 -27.951334 -24.665367 6.162734 6.788223 110.723968 2.195375 1.941800 31.707797 0.030100 0.000000 -62.668600 14.748766 -5.414593 4.291686 -1.714845 20.463054 -15.186884 -11.122999 -7.876867 125.585239 -0.944386 -4.758365 -16.166186 0.507000 -0.000000 -67.442100
15.480595 21.292410 1.730240 11.243475 -78.392434 -1.419677 -13.702793 5.064184 7.259034 8.006583 -29.277898 -24.959578 6.612349 7.077616 112.861048 2.038493 0.123446 32.372317 -1.011500 0.000000 -62.534901 14.810755 -5.451182 4.474656 -2.138303 21.905896 -15.299866 -11.801664 -8.011262 127.800331 -1.032692 -5.270298 -17.014177 0.641900 -0.000000 -66.522900
15.343064 21.326331 1.744260 9.711265 -78.332532 0.050311 -13.893698 5.120201 7.444831 9.102985 -30.641344 -25.298943 6.989344 7.322040 114.513795 1.895349 -1.530463 32.969980 -1.984400 -0.000000 -62.513699 14.838697 -5.450833 4.651153 -2.561877 23.192943 -15.526000 -12.287072 -8.097756 129.324763 -1.161579 -6.013644 -17.684492 0.810900 -0.000000 -65.499600
15.204591 21.353704 1.757305 8.349786 -78.191233 1.363607 -14.036970 5.153061 7.649338 10.112763 -31.975676 -25.684474 7.275680 7.517379 115.681976 1.777051 -2.911307 33.478830 -2.816600 0.000000 -62.585000 14.837256 -5.414970 4.808091 -2.968563 24.283678 -15.880458 -12.559147 -8.147743 130.171817 -1.318100 -6.925918 -18.250521 1.011100 0.000000 -64.254600
15.065944 21.374227 1.768378 7.220267 -77.975759 2.451076 -14.130100 5.155143 7.862577 11.005500 -33.226295 -26.135881 7.458391 7.661006 116.370627 1.694426 -3.908357 33.880174 -3.431100 -0.000000 -62.844100 14.811002 -5.344901 4.933089 -3.337419 25.128616 -16.371008 -12.612042 -8.169216 130.369193 -1.485543 -7.920723 -18.790720 1.237700 0.000000 -62.713000
14.928185 21.387919 1.776840 6.347942 -77.713273 3.271818 -14.173731 5.119179 8.065981 11.736884 -34.329824 -26.635702 7.530452 7.750201 116.588578 1.654797 -4.434004 34.147035 -3.762900 0.000000 -63.295300 14.760377 -5.242856 5.019699 -3.646721 25.722549 -16.979724 -12.451883 -8.167677 129.950488 -1.644557 -8.892081 -19.365347 1.483600 -0.000000 -60.844300
